<?xml version="1.0" encoding="utf-8"?>
<!-- Generator: Adobe Illustrator 28.2.0, SVG Export Plug-In . SVG Version: 6.00 Build 0)  -->
<svg version="1.1" id="Layer_1" xmlns="http://www.w3.org/2000/svg" xmlns:xlink="http://www.w3.org/1999/xlink" x="0px" y="0px"
	 viewBox="0 0 1920 1080" style="enable-background:new 0 0 1920 1080;" xml:space="preserve">
<style type="text/css">
	.st0{fill:#D4FFF2;}
	.st1{fill:#00B588;}
	.st2{fill:#035642;}
</style>
<g>
	<circle class="st0" cx="988.41" cy="489.27" r="159.05"/>
	<g>
		<path class="st1" d="M988.41,489.27l-42.77-66.29h45.78l22.51,39.77l23.51-39.77h45.02l-42.77,66.29l43.77,66.04h-45.27
			l-24.01-39.27l-24.51,39.27h-45.28L988.41,489.27z"/>
	</g>
	<path class="st2" d="M925.63,486.46c0,23.51-9.76,40.52-28.77,51.03l21.26,43.02l20.76,7.25v20.26h-15.18l0,0h-41.1l-27.26-62.78
		c-3,0.25-6.25,0.25-9.25,0.25h-13.26v34.77l16.01,7.5v20.26h-76.29v-20.26l16.01-7V455.69l-16.01-7.25v-20.51h85.05
		C902.87,427.92,925.63,451.19,925.63,486.46z M832.83,460.44v52.78h21.26c18.01,0,27.02-10.01,27.02-26.76
		c0-16.76-8.25-26.01-26.01-26.01H832.83z"/>
</g>
</svg>
