<?xml version="1.0" encoding="utf-8"?>
<!-- Generator: Adobe Illustrator 28.2.0, SVG Export Plug-In . SVG Version: 6.00 Build 0)  -->
<svg version="1.1" id="Layer_1" xmlns="http://www.w3.org/2000/svg" xmlns:xlink="http://www.w3.org/1999/xlink" x="0px" y="0px"
	 viewBox="0 0 1920 1080" style="enable-background:new 0 0 1920 1080;" xml:space="preserve">
<style type="text/css">
	.st0{fill:#D4FFF2;}
	.st1{fill:#00B588;}
	.st2{fill:#035642;}
</style>
<g>
	<circle class="st0" cx="1233.14" cy="489.27" r="159.05"/>
	<g>
		<g>
			<path class="st1" d="M1233.14,489.27l-42.77-66.29h45.78l22.51,39.77l23.51-39.77h45.02l-42.77,66.29l43.77,66.04h-45.27
				l-24.01-39.27l-24.51,39.27h-45.28L1233.14,489.27z"/>
		</g>
		<g>
			<path class="st2" d="M644.84,448.44l-13.01,7.25l-47.03,89.3v35.27l18.26,7.25v20.51h-81.04v-20.51l18.26-7.25v-35.52
				l-50.28-89.05l-14.26-7.25v-20.51h79.04v20.51l-15.01,7.75l18.76,35.52l7.5,16.76h1.25l7.5-16.51l19.01-36.27l-15.51-7.25v-20.51
				h66.54V448.44z"/>
			<path class="st2" d="M774.16,541.74c0,46.28-31.52,69.29-73.04,69.29c-40.52,0-69.29-23.01-69.29-69.04
				c0-47.03,32.02-69.29,71.79-69.29C745.64,472.7,774.16,494.46,774.16,541.74z M677.11,541.99c0,26.76,11.26,37.52,26.01,37.52
				c14.26,0,26.01-10.76,26.01-37.52s-11.51-37.77-26.01-37.77C688.36,504.22,677.11,515.47,677.11,541.99z"/>
			<path class="st2" d="M844.45,581.26l14.76,7.25v19.51h-72.29v-19.51l15.01-7.25V454.94l-14.76-6.75v-20.26h57.28V581.26z"/>
			<path class="st2" d="M991.77,522.98v51.53c0,5.5,3.25,8.25,7.75,8.25h3v25.26c-6.25,1.25-12.51,2.25-18.51,2.25
				c-14.51,0-24.01-5-29.52-18.76l-0.75-1.25c-9.76,15.01-23.76,20.76-40.27,20.76c-24.51,0-41.52-12.51-41.52-38.77
				c0-23.26,17.01-40.52,60.03-40.52c6.75,0,11.76,0.25,17.26,1v-9.76c0-13.26-7.75-19.01-20.76-19.01
				c-14.76,0-28.27,3.75-41.02,10.25l-9.25-26.51c15.51-8.75,35.77-15.01,54.53-15.01C971.01,472.7,991.77,487.46,991.77,522.98z
				 M912.23,569.75c0,9.51,6,14.51,16.01,14.51c11.76,0,21.01-11.01,21.01-20.76v-9.25c-3.25-0.75-7-1.25-12.51-1.25
				C920.73,552.99,912.23,558,912.23,569.75z"/>
			<path class="st2" d="M1170.36,486.46c0,23.51-9.76,40.52-28.77,51.03l21.26,43.02l20.76,7.25v20.26h-15.18l0,0h-41.1
				l-27.26-62.78c-3,0.25-6.25,0.25-9.25,0.25h-13.26v34.77l16.01,7.5v20.26h-76.29v-20.26l16.01-7V455.69l-16.01-7.25v-20.51h85.05
				C1147.6,427.92,1170.36,451.19,1170.36,486.46z M1077.56,460.44v52.78h21.26c18.01,0,27.02-10.01,27.02-26.76
				c0-16.76-8.25-26.01-26.01-26.01H1077.56z"/>
		</g>
	</g>
</g>
</svg>
